# AST/ASF file generated using VICON BodyLanguage
# -----------------------------------------------
:version 1.10
:name VICON
:units
  mass 1.0
  length 0.45
  angle deg
:documentation
   .ast/.asf automatically generated from VICON data using
   VICON BodyBuilder and BodyLanguage model FoxedUp or BRILLIANT.MOD
:root
   order TX TY TZ RX RY RZ
   axis XYZ
   position 0 0 0  
   orientation 0 0 0 
:bonedata
  begin
     id 1 
     name lhipjoint
     direction 0.602128 -0.715006 0.355257 
     length 2.21237 
     axis 0 0 0  XYZ
  end
  begin
     id 2 
     name lfemur
     direction 0.34202 -0.939693 0  
     length 6.71649  
     axis 0 0 20  XYZ
    dof rx ry rz
    limits (-160.0 20.0)
           (-70.0 70.0)
           (-60.0 70.0)
  end
  begin
     id 3 
     name ltibia
     direction 0.34202 -0.939693 0   
     length 6.97123   
     axis 0 0 20   XYZ
    dof rx
    limits (-10.0 170.0)
  end
  begin
     id 4 
     name lfoot
     direction 0.0655697 -0.180151 0.981451   
     length 1.80924   
     axis -90 7.62852e-016 20   XYZ
    dof rx rz
    limits (-45.0 90.0)
           (-70.0 20.0)
  end
  begin
     id 5 
     name ltoes
     direction 1.53545e-011 -4.21827e-011 1   
     length 0.916331   
     axis -90 7.62852e-016 20   XYZ
    dof rx
    limits (-90.0 20.0)
  end
  begin
     id 6 
     name rhipjoint
     direction -0.625414 -0.698792 0.347201   
     length 2.2637  
     axis 0 0 0  XYZ 
  end
  begin
     id 7 
     name rfemur
     direction -0.34202 -0.939693 0   
     length 7.07595   
     axis 0 0 -20   XYZ
    dof rx ry rz
    limits (-160.0 20.0)
           (-70.0 70.0)
           (-70.0 60.0)
  end
  begin
     id 8 
     name rtibia
     direction -0.34202 -0.939693 0   
     length 7.22924   
     axis 0 0 -20   XYZ
    dof rx
    limits (-10.0 170.0)
 end
 begin
     id 9 
     name rfoot
     direction -0.0766747 -0.210662 0.974547   
     length 1.98482  
     axis -90 -7.62852e-016 -20   XYZ
    dof rx rz
    limits (-45.0 90.0)
           (-20.0 70.0)
  end
  begin
     id 10 
     name rtoes
     direction -1.53532e-011 -4.21867e-011 1   
     length 0.999842   
     axis -90 -7.62852e-016 -20   XYZ
    dof rx
    limits (-90.0 20.0)
  end
  begin
     id 11 
     name lowerback
     direction -0.0224668 0.997354 -0.0691422   
     length 2.09945   
     axis 0 0 0   XYZ
    dof rx ry rz
    limits (-20.0 45.0)
           (-30.0 30.0)
           (-30.0 30.0)
  end
  begin
     id 12 
     name upperback
     direction 0.0134698 0.998451 -0.0539888   
     length 2.09758   
     axis 0 0 0   XYZ
    dof rx ry rz
    limits (-20.0 45.0)
           (-30.0 30.0)
           (-30.0 30.0)
  end
  begin
     id 13 
     name thorax
     direction 0.0241905 0.99948 -0.0213333   
     length 2.10428   
     axis 0 0 0   XYZ
    dof rx ry rz
    limits (-20.0 45.0)
           (-30.0 30.0)
           (-30.0 30.0)
  end
  begin
     id 14 
     name lowerneck
     direction -0.00866847 0.995978 0.0891737   
     length 1.3959   
     axis 0 0 0   XYZ
    dof rx ry rz
    limits (-20.0 45.0)
           (-30.0 30.0)
           (-30.0 30.0)
  end
  begin
     id 15 
     name upperneck
     direction 0.0680679 0.992203 0.104404   
     length 1.39452   
     axis 0 0 0   XYZ
    dof rx ry rz
    limits (-20.0 45.0)
           (-30.0 30.0)
           (-30.0 30.0)
  end
  begin
     id 16
     name head
     direction 0.0242216 0.999358 0.0264054  
     length 1.40433  
     axis 0 0 0   XYZ
    dof rx ry rz
    limits (-20.0 45.0)
           (-30.0 30.0)
           (-30.0 30.0)
  end
  begin
     id 17 
     name lclavicle
     direction 0.929368 0.362991 -0.0671771  
     length 3.04887  
     axis 0 0 0   XYZ
    dof ry rz
    limits (-20.0 10.0)
           (0.0 20.0)
  end
  begin
     id 18 
     name lhumerus
     direction 1 -4.48967e-011 -7.13741e-028   
     length 4.77195   
     axis -180 -30 -90   XYZ
    dof rx ry rz
    limits (-60.0 90.0)
           (-90.0 90.0)
           (-90.0 90.0)
  end
  begin
     id 19
     name lradius
     direction 1 -4.48977e-011 3.60404e-027   
     length 2.98444   
     axis -180 -30 -90   XYZ
    dof rx
    limits (-10.0 170.0)
  end
  begin
     id 20
     name lwrist
     direction 1 -4.48997e-011 7.54877e-027   
     length 1.49222   
     axis -7.18178e-015 90 90   XYZ
    dof ry
    limits (-180.0 0.0)
 end
  begin
     id 21 
     name lhand
     direction 1 -4.489e-011 1.51105e-026   
     length 0.992285   
     axis -9.63605e-015 90 90   XYZ
    dof rx rz
    limits (-90.0 90.0)
           (-45.0 45.0)
  end
  begin
     id 22 
     name lfingers
     direction 1 -4.48998e-011 3.01948e-026   
     length 0.800006   
     axis -1.92718e-014 90 90   XYZ
    dof rx
    limits (0.0 90.0)
  end
  begin
     id 23
     name lthumb
     direction 0.707107 -6.34881e-011 0.707107   
     length 1.14865   
     axis -90 45 -3.53137e-014   XYZ
    dof rx rz
    limits (-45.0 45.0)
           (-45.0 45.0)
  end
  begin
     id 24 
     name rclavicle
     direction -0.945672 0.324529 0.0196374   
     length 3.4236  
     axis 0 0 0   XYZ 
    dof ry rz
    limits (-10.0 20.0)
           (-20.0 0.0)
  end
  begin
     id 25 
     name rhumerus
     direction -1 -4.4896e-011 1.02757e-029  
     length 4.62052   
     axis -180 30 90   XYZ
    dof rx ry rz
    limits (-90.0 60.0)
           (-90.0 90.0)
           (-90.0 90.0)
  end
  begin
     id 26 
     name rradius
     direction -1 -4.48982e-011 3.85962e-027   
     length 2.95332   
     axis -180 30 90   XYZ
    dof rx
    limits (-10.0 170.0)
  end
  begin
     id 27 
     name rwrist
     direction -1 -4.48961e-011 7.55118e-027   
     length 1.47666   
     axis -7.18178e-015 -90 -90   XYZ
    dof ry
    limits (-180.0 0.0)
  end
  begin
     id 28
     name rhand
     direction -1 -4.48984e-011 1.50994e-026   
     length 0.990956   
     axis -9.63605e-015 -90 -90   XYZ
    dof rx rz
    limits (-90.0 90.0)
           (-45.0 45.0)
  end
  begin
     id 29
     name rfingers
     direction -1 -4.4892e-011 3.02158e-026   
     length 0.798934   
     axis -1.92718e-014 -90 -90   XYZ
    dof rx
    limits (0.0 90.0)
  end
  begin
     id 30
     name rthumb
     direction -0.707107 -6.34916e-011 0.707107   
     length 1.14711   
     axis -90 -45 3.53137e-014   XYZ
    dof rx rz
    limits (-45.0 45.0)
           (-45.0 45.0)
  end
:hierarchy
  begin
    root lhipjoint rhipjoint lowerback
    lhipjoint lfemur
    lfemur ltibia
    ltibia lfoot
    lfoot ltoes
    rhipjoint rfemur
    rfemur rtibia
    rtibia rfoot
    rfoot rtoes
    lowerback upperback
    upperback thorax
    thorax lowerneck lclavicle rclavicle
    lowerneck upperneck
    upperneck head
    lclavicle lhumerus
    lhumerus lradius
    lradius lwrist
    lwrist lhand lthumb
    lhand lfingers
    rclavicle rhumerus
    rhumerus rradius
    rradius rwrist
    rwrist rhand rthumb
    rhand rfingers
  end

#!OML:ASF H:\ManfredObstacles\Project 1\Capture day 1\Session 1\Male.ASF
:FULLY-SPECIFIED
:DEGREES
100
root 10.9619 16.2009 24.6433 -172.971 -3.07592 -180.416
lowerback -8.08255 -1.53241 -5.27053
upperback 3.18604 -1.47945 -0.209813
thorax 8.05486 -1.00329 2.5166
lowerneck 0.867736 -1.93255 -4.48489
upperneck 3.88728 -2.6391 9.2239
head 1.2989 -1.1773 3.78567
rclavicle -3.50855e-014 -2.78299e-015
rhumerus -36.8609 -24.0526 -74.9319
rradius 27.8995
rwrist 30.3687
rhand -1.27554 -4.39768
rfingers 7.12502
rthumb 24.3681 -32.8683
lclavicle -3.50855e-014 -2.78299e-015
lhumerus -25.4161 21.1357 77.2828
lradius 16.0769
lwrist -38.7041
lhand -8.97539 8.00173
lfingers 7.12502
lthumb 16.9701 37.2804
rfemur -28.2319 -11.1732 18.6986
rtibia 66.9659
rfoot -13.7219 6.31611
rtoes 8.93844
lfemur -17.1826 4.55082 -24.3457
ltibia 22.0089
lfoot -3.59737 -15.9936
ltoes 10.7609
101
root 10.94 16.1841 24.4985 -173.009 -3.55738 -180.145
lowerback -7.99011 -1.65323 -4.96992
upperback 3.25256 -1.68165 -0.175023
thorax 8.08021 -1.08921 2.3545
lowerneck 0.889586 -2.05163 -4.25314
upperneck 3.93784 -2.7961 9.16067
head 1.31754 -1.25034 3.7165
rclavicle -2.19657e-014 1.39149e-014
rhumerus -37.1893 -23.7019 -75.0494
rradius 28.2763
rwrist 30.0847
rhand -0.910382 -4.35467
rfingers 7.12502
rthumb 24.7181 -32.7778
lclavicle -2.19657e-014 1.39149e-014
lhumerus -24.4777 19.7982 78.0793
lradius 16.5826
lwrist -37.5878
lhand -8.96533 8.14828
lfingers 7.12502
lthumb 16.9798 37.4261
rfemur -29.7622 -11.0332 19.2269
rtibia 65.6624
rfoot -14.9592 6.096
rtoes 10.8922
lfemur -16.9817 4.7087 -24.1019
ltibia 22.7524
lfoot -4.34639 -16.6092
ltoes 10.0592
102
root 10.9171 16.1651 24.3518 -173.028 -4.08629 -179.893
lowerback -7.9485 -1.86078 -4.79131
upperback 3.34334 -1.99039 -0.0223681
thorax 8.178 -1.23815 2.36777
lowerneck 0.898115 -2.12178 -4.24637
upperneck 3.84602 -2.88874 9.14794
head 1.29281 -1.30035 3.70916
rclavicle -9.64106e-015 -5.1684e-015
rhumerus -37.3089 -23.1699 -75.0807
rradius 28.4781
rwrist 29.9043
rhand -0.767729 -4.28234
rfingers 7.12502
rthumb 24.8548 -32.6867
lclavicle -9.64106e-015 -5.1684e-015
lhumerus -23.7173 18.2758 79.0916
lradius 17.4239
lwrist -35.7571
lhand -9.002 8.36009
lfingers 7.12502
lthumb 16.9445 37.641
rfemur -31.1379 -10.9777 19.7132
rtibia 63.8836
rfoot -16.2399 5.31149
rtoes 10.176
lfemur -16.7591 4.51211 -23.8329
ltibia 23.4756
lfoot -5.17702 -16.9655
ltoes 10.5872
103
root 10.898 16.1443 24.2044 -172.981 -4.62763 -179.821
lowerback -7.90248 -2.09263 -4.88188
upperback 3.39808 -2.30532 0.160871
thorax 8.2494 -1.40419 2.56403
lowerneck 0.923118 -2.22211 -4.35834
upperneck 3.72484 -3.02476 9.12504
head 1.26117 -1.37682 3.7209
rclavicle -2.06736e-014 -5.96354e-015
rhumerus -37.3514 -22.8036 -74.926
rradius 28.472
rwrist 29.9663
rhand -0.847274 -4.23452
rfingers 7.12502
rthumb 24.7786 -32.6494
lclavicle -2.06736e-014 -5.96354e-015
lhumerus -23.0432 16.4929 80.2498
lradius 18.3879
lwrist -33.4736
lhand -9.01412 8.44917
lfingers 7.12502
lthumb 16.9328 37.731
rfemur -32.4216 -10.943 20.0007
rtibia 61.6925
rfoot -17.658 4.2182
rtoes 8.51712
lfemur -16.4857 3.99267 -23.7254
ltibia 24.0183
lfoot -6.1302 -17.0585
ltoes 10.5025
104
root 10.8832 16.1263 24.0546 -172.951 -5.12065 -179.818
lowerback -7.78342 -2.24504 -5.01194
upperback 3.41348 -2.50979 0.269672
thorax 8.22699 -1.51423 2.72391
lowerneck 1.06593 -2.33281 -4.49081
upperneck 3.56691 -3.17115 9.26153
head 1.2018 -1.45656 3.79404
rclavicle -2.80286e-014 1.31198e-014
rhumerus -37.5748 -23.0081 -74.5473
rradius 28.3238
rwrist 30.2414
rhand -0.919191 -4.23067
rfingers 7.12502
rthumb 24.7097 -32.655
lclavicle -2.80286e-014 1.31198e-014
lhumerus -22.4229 14.5046 81.3036
lradius 19.272
lwrist -31.3049
lhand -9.15381 8.50832
lfingers 7.12502
lthumb 16.7984 37.8017
rfemur -33.4724 -10.8558 20.156
rtibia 59.1142
rfoot -18.8651 3.20131
rtoes 8.39859
lfemur -16.0494 3.69451 -23.6887
ltibia 24.2776
lfoot -6.85619 -17.3028
ltoes 10.0268
105
root 10.8711 16.1181 23.9009 -172.986 -5.47795 -179.958
lowerback -7.57615 -2.36358 -5.25674
upperback 3.44167 -2.65821 0.297132
thorax 8.1656 -1.60125 2.87355
lowerneck 1.0902 -2.333 -4.38272
upperneck 3.2733 -3.15784 9.27248
head 1.0993 -1.45605 3.77653
rclavicle -2.1916e-014 -9.93923e-015
rhumerus -37.8661 -23.4704 -74.1005
rradius 28.1578
rwrist 30.5268
rhand -0.844647 -4.35272
rfingers 7.12502
rthumb 24.7811 -32.7672
lclavicle -2.1916e-014 -9.93923e-015
lhumerus -21.8971 12.6361 82.2
lradius 20.185
lwrist -29.3804
lhand -9.48673 8.73304
lfingers 7.12502
lthumb 16.4779 38.0533
rfemur -34.2342 -10.6944 20.0565
rtibia 56.1668
rfoot -19.6442 2.49631
rtoes 9.40126
lfemur -15.3855 3.78461 -23.8068
ltibia 24.278
lfoot -7.27896 -17.8146
ltoes 10.1032
106
root 10.8628 16.119 23.7461 -172.931 -5.70298 -180.079
lowerback -7.47544 -2.53221 -5.57469
upperback 3.43855 -2.86455 0.407758
thorax 8.14916 -1.72205 3.14096
lowerneck 0.972986 -2.33859 -4.50043
upperneck 3.3486 -3.17199 9.27456
head 1.14826 -1.46222 3.79908
rclavicle -3.97569e-016 1.03368e-014
rhumerus -38.0076 -23.7753 -73.6442
rradius 27.862
rwrist 30.8353
rhand -0.870725 -4.54006
rfingers 7.12502
rthumb 24.7561 -32.958
lclavicle -3.97569e-016 1.03368e-014
lhumerus -21.5761 10.8807 83.0725
lradius 21.3455
lwrist -27.2264
lhand -9.47253 8.82838
lfingers 7.12502
lthumb 16.4915 38.1475
rfemur -34.9374 -10.3354 19.945
rtibia 52.896
rfoot -20.1162 1.90966
rtoes 7.42128
lfemur -14.6276 3.8946 -23.8763
ltibia 23.9023
lfoot -7.37574 -18.1801
ltoes 10.5207
107
root 10.8562 16.1236 23.5971 -172.738 -5.88274 -179.939
lowerback -7.52769 -2.67092 -5.62303
upperback 3.39901 -3.05323 0.599572
thorax 8.17135 -1.82072 3.34161
lowerneck 0.95423 -2.31239 -4.76029
upperneck 3.34239 -3.14142 9.44585
head 1.15686 -1.44849 3.91106
rclavicle 1.06847e-014 -3.97569e-016
rhumerus -38.086 -24.4486 -73.0071
rradius 27.3074
rwrist 31.4546
rhand -1.13221 -4.50819
rfingers 7.12502
rthumb 24.5055 -32.9603
lclavicle 1.06847e-014 -3.97569e-016
lhumerus -21.2559 9.35009 83.8758
lradius 22.4405
lwrist -25.4746
lhand -9.50938 8.67317
lfingers 7.12502
lthumb 16.4561 37.9952
rfemur -35.6393 -9.81653 20.1097
rtibia 49.3259
rfoot -19.8201 2.01098
rtoes 8.85797
lfemur -13.9552 3.81266 -23.641
ltibia 23.2733
lfoot -7.30338 -18.2819
ltoes 10.65
108
root 10.846 16.1376 23.4335 -172.657 -6.2185 -180.253
lowerback -7.63079 -2.72959 -5.88373
upperback 3.43872 -3.0907 0.490028
thorax 8.28889 -1.85385 3.35988
lowerneck 1.24779 -2.39136 -4.7354
upperneck 3.04221 -3.23225 9.68151
head 1.01947 -1.49998 3.99167
rclavicle 3.0265e-014 -3.97569e-016
rhumerus -38.4435 -25.6134 -72.345
rradius 26.8197
rwrist 31.9862
rhand -1.20252 -4.55615
rfingers 7.12502
rthumb 24.4381 -33.0174
lclavicle 3.0265e-014 -3.97569e-016
lhumerus -20.932 7.6639 84.4944
lradius 23.3904
lwrist -24.3833
lhand -9.87994 8.55339
lfingers 7.12502
lthumb 16.0993 37.9047
rfemur -35.9036 -9.68782 19.7208
rtibia 45.5995
rfoot -19.5636 2.81836
rtoes 11.194
lfemur -12.9381 3.7565 -23.8808
ltibia 22.4502
lfoot -7.15105 -18.6385
ltoes 10.6744
